<svg xmlns="http://www.w3.org/2000/svg" xmlns:xlink="http://www.w3.org/1999/xlink" version="1.1" id="Globe" x="0px" y="0px" width="100px" height="100px" viewBox="0 0 100 100" enable-background="new 0 0 100 100" xml:space="preserve">
<polygon id="Islands_4_" fill-rule="evenodd" clip-rule="evenodd" points="42.023,38.316 41.349,37.191 40.562,34.943 41.124,34.27   40.786,32.697 38.764,34.27 39.214,35.619 39.775,37.752 38.764,37.752 38.764,38.763 39.888,39.438 "/>
<polygon id="Islands_3_" fill-rule="evenodd" clip-rule="evenodd" points="35.955,36.741 36.293,38.316 37.978,37.529 38.426,36.18   37.753,35.507 "/>
<polygon id="Islands_2_" fill-rule="evenodd" clip-rule="evenodd" points="38.09,27.866 38.426,26.967 37.529,26.068 35.73,25.957   35.843,27.303 "/>
<polygon id="Islands_1_" fill-rule="evenodd" clip-rule="evenodd" points="50.338,18.989 50.899,19.212 51.011,18.316   50.338,17.978 50.785,16.855 48.764,17.978 49.55,19.662 "/>
<polygon id="Islands" fill-rule="evenodd" clip-rule="evenodd" points="55.28,15.73 54.158,15.169 53.37,15.957 54.831,16.18 "/>
<path id="Earth" fill-rule="evenodd" clip-rule="evenodd" d="M50,0C22.386,0,0,22.386,0,50s22.386,50,50,50s50-22.386,50-50  S77.614,0,50,0z M6.91,50c0-9.137,2.852-17.603,7.703-24.575l0.556,0.417l-0.336,1.349l1.235,0.338l-0.225-1.798l1.011-0.112v-2.36  h1.011c0,0,0.178,0.458,0.365,0.938c0.205,0.528,0.422,1.084,0.422,1.084l1.123,1.237c0,0-1.348,0.335-1.797,0.335  c-0.449,0-0.225,1.798-0.225,1.798l1.572,0.561l1.016-1.876l2.355-2.617l1.123-3.482l2.135-2.024l-1.236-0.896l1.349-0.899  l0.112-1.237l-3.932,1.123l-0.124-0.148c2.141-1.819,4.46-3.433,6.931-4.81l1.844,0.803l-1.235,2.36h-2.473l-0.45,2.133h2.023  l2.921-1.798l2.023-2.021l0.336-1.91l-2.921-0.224l2.022-1.349l1.91,0.338l-0.336,2.021l2.584-1.575l0.45,1.237l0.562,1.798  l-1.461,1.798l-1.573,1.46l-2.36-0.338l1.124,2.359l-2.135-0.337l-3.595,3.708l0.899,1.237l2.921-0.226l2.472-0.788l3.147-0.335  l1.46-0.337c0,0,0-0.899-0.113-1.46c-0.111-0.562,1.124,0.111,1.124,0.111l1.349-0.785l1.011-3.147l3.707-1.687l-0.561-0.897  l0.899-1.125l-2.921-0.45l0.786-1.123l-3.708-1.237h-1.91l0.674-1.684l0.786-0.788l-0.063-0.063C43.4,7.304,46.653,6.91,50,6.91  c5.216,0,10.214,0.927,14.841,2.625L64.729,9.8l-1.871-0.125V10.8l0.749,0.499v0.998l0.623,0.873l-2.245-1.372l-1.497,0.749  l0.749,1.749l0.374,1.996l0.998,1.125l2.37,0.374l-0.499,0.998l-0.499,1.5l2.123,1.372l-0.125,0.624l-3.994-3.371l-0.249,1.25  l1.746,1.747l0.998,0.374l-2.245,0.499l-0.25,1.125l-1.621-1.625l-1.001-2.121l-0.374-2.123l-1.001,1.248l0.751,2.996l1.248,0.876  l-0.499,2.869l-0.749-0.375l0.125,1.5l-1.125-0.125l-1.123-1.625h-1.372l-1.998-0.25l-1.999,0.125l-1.871,1.5l-1.249,2.121  l-2.622,1.998l-0.25,1.123v1.375l0.624,1.372l1.249-0.998l0.374,0.748l0.625,1.123l0.125,0.252l0.624,0.749L50,35.894l-0.125-2.747  l1.372-1.749c0,0,0.07-0.296,0.148-0.637c0.106-0.455,0.227-0.985,0.227-0.985l0.498-1.375l0.876,0.125l-0.249,1.125l-0.502,2.495  l2.375-0.25l0.874,0.25l-1.874,0.501l0.249,1.248l-2.123,1.372l0.125,1.375L50,37.142l-0.374,0.998l-1.499-0.499h-0.999v-2.123  l-1.124,0.377v1.123l-3.121,2.498l-1.748,0.624l-0.749,0.873l-2.498-0.624l-0.125,1.123l1.623,0.626l-0.125,2.245l-4.495-0.125  l-0.624,0.998l-0.624,1.749l-0.75,1.5l1.124,1.248l1.249,1.497L39.139,50l0.25-1.497l0.875-0.751l1.498-0.499l-0.125-0.998  l1.374-0.375l1.997-0.374l1.249,1.497l2.247,1.625l0.999,1.621v0.749l1.247-0.749l-0.623-1.122l0.249-1.25l-1.123-0.499  l-0.999-1.372l0.624-1.999L50,45.631l1.622,1.248l0.623,2.248l1.624,1.247l0.377,1.375l0.749-1.624l-0.25-0.749l0.374-0.624  l2.37-1.998l0.499-2.498l1.001-0.749l1.247,0.125l1.874-1.874l0.125,1.5l2.744,0.873v1.375h-2.245l-3.371,1.746l-2.747,1.5  l0.749,1.622l2.497,0.499l1.375,0.624l1.497-0.998l0.124,4.246l-4.246,0.873l-4.49-1.25l-1.749,1.375l0.748,0.748l-1.375-0.249  l-4.368-1.624l-1.248,0.127l-0.999-1.624v-1.998h-2.248l-1.248-0.25l-3.996,0.876l-3.121-0.252l-1.373,0.751l-0.874,0.125  l-0.5,1.621l-2.871,1.999l-3.996,2.996l-0.25,3.869l-1.124,2.498l0.125,1.496l0.999,1.749l2.872,4.868l2.996,1.374l4.994,0.375  l-0.25-2.124l-1.124-0.623l0.499-1.123l0.875,0.998l0.873,2.622l3.746,0.25l1.498,1.496l2.122,0.876l0.25,3.62l2.248,2.872  l2.122,3.744l-1.872,2.248l1.912,2.975C25.354,92.215,6.91,73.266,6.91,50z M64.765,90.492l5.209-3.787l-1.871-4.621l5.993-7.863  l1.871-4.995l0.873-2.747l-3.118,1.5l-1.874,0.374l-4.618-2.872l-1.374-3.121l-1.749-1.749l-2.246-4.992l1.871,1.497l3.498,3.87  l1.248,1.749l2.494,1.247l0.751,3.246l2.997-1.996l3.62-4.496l1.748-4.618l-1.374-1.122l-0.749-1.375l-0.875,1.624l-1.747,1.996  l-2.497-2.747l-0.748-2.12l1.748,0.374l1.747,0.873l2.497-0.873l1.5,0.499l3.991-2.747l2.251,1.25l1.372-0.751l2.985,4.7l1.479-1.41  l0.029-1.791l0.124-5.369l0.918-2.544c0.223,1.775,0.351,3.58,0.351,5.416C93.09,68.61,81.291,84.465,64.765,90.492z"/>
</svg>